<svg xmlns="http://www.w3.org/2000/svg" id="Layer_1" data-name="Layer 1" viewBox="0 0 453.54 283.46"><defs><style>.cls-1{fill:#fcc441;}.cls-2{fill:#e52621;}.cls-3{fill:#1e1e1c;}</style></defs><path class="cls-1" d="M417.2,114.71q-3.56-4.27-11.21-6.83c-1.28-.42-2.57-.82-3.88-1.19-.17,0,9.73-7,9.94-6.87l6.23-12.21A41.59,41.59,0,0,0,408.94,84a38.18,38.18,0,0,0-9.34-1.24,24.89,24.89,0,0,0-8.66,1.44,19.19,19.19,0,0,0-4.37,2.35c-.47.26-15,9.82-15.23,10l6.32-12.06H337.81L324.6,93.12c-.37-.4-.73-.82-1.12-1.2a31.9,31.9,0,0,0-10.58-6.75,38.21,38.21,0,0,0-26.87,0c-2.35.94-22.63,14.09-22.77,14.18a20.71,20.71,0,0,0-.93-3.52,16.56,16.56,0,0,0-9.87-9.94,23.75,23.75,0,0,0-8.78-1.48H219.33l-6.26,4.36,2.29-4.36H175.5l-7.29,5.23V84.41H152.57L130,100.09V84.41H114.32L-.24,164.2,1.45,283.38l207.81-.59L406.83,146l3.78-2.5s.9-.56,1.32-.87a18.72,18.72,0,0,0,2.71-2,17.46,17.46,0,0,0,4.56-6.42,21.66,21.66,0,0,0,1.55-8.39Q420.75,119,417.2,114.71Z"></path><path class="cls-2" d="M129,57.47H124.6v15.9H114.43V28.49h15.78c10.95,0,16.36,6.74,16.36,14.26a13.86,13.86,0,0,1-7.65,12.54l13.19,18.08H140ZM124.6,49h4.75c4.09,0,6.73-1.92,6.73-5.68s-2.64-5.87-6.73-5.87H124.6Z"></path><path class="cls-2" d="M151.63,50.93c0-13.59,10.42-23.09,23.36-23.09s23.29,9.5,23.29,23.09S187.85,74,175,74,151.63,64.59,151.63,50.93Zm36.1,0c0-8.78-5.88-14-12.74-14s-12.8,5.21-12.8,14,5.94,14,12.8,14S187.73,59.71,187.73,50.93Z"></path><path class="cls-2" d="M228.68,64.79H211.85l-3.5,8.58H197.66l20.46-45.2h4l20.59,45.2H232.17Zm-3.44-8.31-4.88-12h-.26l-4.88,12Z"></path><path class="cls-2" d="M285.27,50.93c0,11.88-8.19,22.44-24.22,22.44H246V28.49h15.05C277.08,28.49,285.27,39.12,285.27,50.93Zm-10.56,0c0-7.79-4.82-13.46-13.86-13.46h-4.69V64.39h4.69C269.89,64.39,274.71,58.72,274.71,50.93Z"></path><path class="cls-2" d="M336.91,28.1V73.37h-10.1V48.43L315.07,61.49h-1.39l-12.08-13V73.37h-10V28.1h4.22l18.75,20.46h.06l18-20.46Z"></path><path class="cls-2" d="M371.26,64.79H354.43l-3.5,8.58H340.24l20.46-45.2h4l20.59,45.2H374.75Zm-3.44-8.31-4.88-12h-.26l-4.88,12Z"></path><path class="cls-2" d="M420.92,44c0,7.66-5.21,15.45-16.43,15.45h-5.74V73.37H388.58V28.49h15.91C415.71,28.49,420.92,36.35,420.92,44Zm-10.43-.06c0-3.5-2.24-6.47-7.19-6.47h-4.55v13h4.55C408.25,50.47,410.49,47.44,410.49,43.94Z"></path><path class="cls-3" d="M130.11,107.69h22.6V84.46h15.64v60.2H152.71V119.83h-22.6v24.83H114.46V84.46h15.65Z"></path><path class="cls-3" d="M269.53,144.66H250.05L235.12,121.5v23.16H219.47V84.46h24.35a23.75,23.75,0,0,1,8.78,1.48,16.56,16.56,0,0,1,9.87,9.94,20.67,20.67,0,0,1,1.23,7.18q0,6.87-3.31,11.14T250.61,120Zm-34.41-33.29h2.95q4.63,0,7.11-1.92a7.38,7.38,0,0,0,0-11q-2.48-1.91-7.11-1.91h-2.95Z"></path><path class="cls-3" d="M266.34,114.56a31.51,31.51,0,0,1,2.47-12.5,31,31,0,0,1,17.36-16.84,38.21,38.21,0,0,1,26.87,0A31.6,31.6,0,0,1,323.61,92a30.8,30.8,0,0,1,6.91,10.09,32.72,32.72,0,0,1,0,25,30.74,30.74,0,0,1-6.91,10.1A31.75,31.75,0,0,1,313,143.9a38.35,38.35,0,0,1-26.87,0,31.13,31.13,0,0,1-19.83-29.34Zm16.36,0a16.18,16.18,0,0,0,1.36,6.63,16.88,16.88,0,0,0,3.67,5.26,16.66,16.66,0,0,0,5.39,3.48,17.82,17.82,0,0,0,13,0,17.17,17.17,0,0,0,5.43-3.48,16.53,16.53,0,0,0,3.72-5.26,17,17,0,0,0,0-13.26,16.58,16.58,0,0,0-3.72-5.27,17.14,17.14,0,0,0-5.43-3.47,17.68,17.68,0,0,0-13,0,16.64,16.64,0,0,0-5.39,3.47,16.92,16.92,0,0,0-3.67,5.27A16.14,16.14,0,0,0,282.7,114.56Z"></path><path class="cls-3" d="M370.86,97.71H353.59v10.06h17.57L364.22,121H353.59V131.4h22.84l-6.95,13.26H338V84.46H377.8Z"></path><path class="cls-3" d="M412.19,99.87a19.16,19.16,0,0,0-5.11-3.07,13.45,13.45,0,0,0-4.95-1,8,8,0,0,0-4.95,1.43,4.47,4.47,0,0,0-1.91,3.76,3.71,3.71,0,0,0,1,2.63,8.43,8.43,0,0,0,2.52,1.8,21.63,21.63,0,0,0,3.51,1.32c1.31.37,2.59.77,3.88,1.19q7.65,2.56,11.21,6.83t3.55,11.13a21.7,21.7,0,0,1-1.55,8.39,17.57,17.57,0,0,1-4.56,6.42,20.92,20.92,0,0,1-7.34,4.16,30.73,30.73,0,0,1-9.86,1.47,36.26,36.26,0,0,1-21.15-6.78l6.7-12.62a27,27,0,0,0,6.95,4.63,16.69,16.69,0,0,0,6.79,1.52c2.54,0,4.45-.59,5.7-1.76A5.47,5.47,0,0,0,404,125a5.05,5.05,0,0,0-1.6-1.84,13,13,0,0,0-2.91-1.56q-1.8-.72-4.35-1.59-3-1-5.95-2.12A18.79,18.79,0,0,1,384,114.8,14.27,14.27,0,0,1,380.3,110a17.09,17.09,0,0,1-1.4-7.39,21.21,21.21,0,0,1,1.48-8.1,17.87,17.87,0,0,1,4.15-6.23,18.44,18.44,0,0,1,6.55-4,24.89,24.89,0,0,1,8.66-1.44A38,38,0,0,1,409.07,84a41.93,41.93,0,0,1,9.35,3.63Z"></path><path class="cls-3" d="M208.55,97.71H191.29v10.06h17.56L201.91,121H191.29V131.4h22.83l-6.94,13.26H175.64V84.46H215.5Z"></path></svg>